NotoSansCarian-Regular.ufo
<glyph name="u102A1" format="2">
  <advance width="650"/>
  <unicode hex="102A1"/>
  <outline>
    <contour>
      <point x="98" y="0" type="line"/>
      <point x="349" y="0" type="line" smooth="yes"/>
      <point x="501" y="0"/>
      <point x="597" y="73"/>
      <point x="597" y="203" type="curve" smooth="yes"/>
      <point x="597" y="314"/>
      <point x="526" y="359"/>
      <point x="437" y="374" type="curve"/>
      <point x="437" y="379" type="line"/>
      <point x="524" y="395"/>
      <point x="572" y="453"/>
      <point x="572" y="537" type="curve" smooth="yes"/>
      <point x="572" y="667"/>
      <point x="479" y="714"/>
      <point x="301" y="714" type="curve" smooth="yes"/>
      <point x="98" y="714" type="line"/>
    </contour>
    <contour>
      <point x="188" y="77" type="line"/>
      <point x="188" y="334" type="line"/>
      <point x="325" y="334" type="line" smooth="yes"/>
      <point x="457" y="334"/>
      <point x="500" y="285"/>
      <point x="500" y="210" type="curve" smooth="yes"/>
      <point x="500" y="130"/>
      <point x="458" y="77"/>
      <point x="332" y="77" type="curve" smooth="yes"/>
    </contour>
    <contour>
      <point x="188" y="411" type="line"/>
      <point x="188" y="637" type="line"/>
      <point x="306" y="637" type="line" smooth="yes"/>
      <point x="426" y="637"/>
      <point x="479" y="605"/>
      <point x="479" y="527" type="curve" smooth="yes"/>
      <point x="479" y="450"/>
      <point x="441" y="411"/>
      <point x="319" y="411" type="curve" smooth="yes"/>
    </contour>
  </outline>
</glyph>
<glyph name="u102A3" format="2">
  <advance width="600"/>
  <unicode hex="102A3"/>
  <outline>
    <contour>
      <point x="29" y="0" type="line"/>
      <point x="570" y="0" type="line"/>
      <point x="570" y="54" type="line"/>
      <point x="344" y="714" type="line"/>
      <point x="254" y="714" type="line"/>
      <point x="29" y="55" type="line"/>
    </contour>
    <contour>
      <point x="125" y="77" type="line"/>
      <point x="252" y="455" type="line" smooth="yes"/>
      <point x="271" y="511"/>
      <point x="286" y="568"/>
      <point x="298" y="616" type="curve"/>
      <point x="309" y="568"/>
      <point x="326" y="511"/>
      <point x="346" y="451" type="curve" smooth="yes"/>
      <point x="472" y="77" type="line"/>
    </contour>
  </outline>
</glyph>
<glyph name="u102A4" format="2">
  <advance width="575"/>
  <unicode hex="102A4"/>
  <outline>
    <contour>
      <point x="509" y="-10" type="line"/>
      <point x="526" y="67" type="line"/>
      <point x="188" y="144" type="line"/>
      <point x="188" y="351" type="line"/>
      <point x="428" y="297" type="line"/>
      <point x="445" y="375" type="line"/>
      <point x="188" y="432" type="line"/>
      <point x="188" y="633" type="line"/>
      <point x="509" y="560" type="line"/>
      <point x="526" y="637" type="line"/>
      <point x="188" y="714" type="line"/>
      <point x="98" y="714" type="line"/>
      <point x="98" y="0" type="line"/>
      <point x="188" y="0" type="line"/>
      <point x="188" y="63" type="line"/>
    </contour>
  </outline>
</glyph>
<glyph name="u102A6" format="2">
  <advance width="500"/>
  <unicode hex="102A6"/>
  <outline>
    <contour>
      <point x="49" y="0" type="line"/>
      <point x="452" y="0" type="line"/>
      <point x="452" y="77" type="line"/>
      <point x="295" y="77" type="line"/>
      <point x="295" y="637" type="line"/>
      <point x="452" y="637" type="line"/>
      <point x="452" y="714" type="line"/>
      <point x="49" y="714" type="line"/>
      <point x="49" y="637" type="line"/>
      <point x="205" y="637" type="line"/>
      <point x="205" y="77" type="line"/>
      <point x="49" y="77" type="line"/>
    </contour>
  </outline>
</glyph>
<glyph name="u102A7" format="2">
  <advance width="741"/>
  <unicode hex="102A7"/>
  <outline>
    <contour>
      <point x="98" y="0" type="line"/>
      <point x="644" y="0" type="line"/>
      <point x="644" y="714" type="line"/>
      <point x="98" y="714" type="line"/>
    </contour>
    <contour>
      <point x="188" y="77" type="line"/>
      <point x="188" y="334" type="line"/>
      <point x="554" y="334" type="line"/>
      <point x="554" y="77" type="line"/>
    </contour>
    <contour>
      <point x="188" y="411" type="line"/>
      <point x="188" y="637" type="line"/>
      <point x="554" y="637" type="line"/>
      <point x="554" y="411" type="line"/>
    </contour>
  </outline>
</glyph>
<glyph name="u102A8" format="2">
  <advance width="781"/>
  <unicode hex="102A8"/>
  <outline>
    <contour>
      <point x="391" y="-10" type="curve" smooth="yes"/>
      <point x="606" y="-10"/>
      <point x="720" y="137"/>
      <point x="720" y="358" type="curve" smooth="yes"/>
      <point x="720" y="580"/>
      <point x="606" y="725"/>
      <point x="392" y="725" type="curve" smooth="yes"/>
      <point x="168" y="725"/>
      <point x="61" y="578"/>
      <point x="61" y="359" type="curve" smooth="yes"/>
      <point x="61" y="138"/>
      <point x="168" y="-10"/>
    </contour>
    <contour>
      <point x="346" y="68" type="line"/>
      <point x="222" y="87"/>
      <point x="159" y="186"/>
      <point x="153" y="334" type="curve"/>
      <point x="346" y="334" type="line"/>
    </contour>
    <contour>
      <point x="436" y="68" type="curve"/>
      <point x="436" y="334" type="line"/>
      <point x="627" y="334" type="line"/>
      <point x="622" y="185"/>
      <point x="561" y="86"/>
    </contour>
    <contour>
      <point x="155" y="411" type="line"/>
      <point x="167" y="543"/>
      <point x="230" y="628"/>
      <point x="346" y="646" type="curve"/>
      <point x="346" y="411" type="line"/>
    </contour>
    <contour>
      <point x="436" y="411" type="line"/>
      <point x="436" y="646" type="line"/>
      <point x="552" y="629"/>
      <point x="613" y="543"/>
      <point x="625" y="411" type="curve"/>
    </contour>
  </outline>
</glyph>
<glyph name="u102A9" format="2">
  <advance width="575"/>
  <unicode hex="102A9"/>
  <outline>
    <contour>
      <point x="98" y="0" type="line"/>
      <point x="188" y="0" type="line"/>
      <point x="188" y="633" type="line"/>
      <point x="509" y="560" type="line"/>
      <point x="526" y="637" type="line"/>
      <point x="188" y="714" type="line"/>
      <point x="98" y="714" type="line"/>
    </contour>
  </outline>
</glyph>
<glyph name="u102AA" format="2">
  <advance width="769"/>
  <unicode hex="102AA"/>
  <outline>
    <contour>
      <point x="98" y="0" type="line"/>
      <point x="188" y="0" type="line"/>
      <point x="188" y="394" type="line" smooth="yes"/>
      <point x="188" y="467"/>
      <point x="183" y="551"/>
      <point x="179" y="598" type="curve"/>
      <point x="183" y="598" type="line"/>
      <point x="581" y="186" type="line"/>
      <point x="671" y="186" type="line"/>
      <point x="671" y="714" type="line"/>
      <point x="582" y="714" type="line"/>
      <point x="582" y="501" type="line" smooth="yes"/>
      <point x="582" y="437"/>
      <point x="586" y="331"/>
      <point x="588" y="299" type="curve"/>
      <point x="584" y="299" type="line"/>
      <point x="189" y="714" type="line"/>
      <point x="98" y="714" type="line"/>
    </contour>
  </outline>
</glyph>
<glyph name="u102AC" format="2">
  <advance width="711"/>
  <unicode hex="102AC"/>
  <outline>
    <contour>
      <point x="98" y="0" type="line"/>
      <point x="188" y="0" type="line"/>
      <point x="188" y="465" type="line" smooth="yes"/>
      <point x="188" y="603"/>
      <point x="250" y="646"/>
      <point x="363" y="646" type="curve" smooth="yes"/>
      <point x="524" y="646"/>
      <point x="572" y="543"/>
      <point x="572" y="426" type="curve" smooth="yes"/>
      <point x="572" y="405" type="line"/>
      <point x="662" y="405" type="line"/>
      <point x="662" y="426" type="line" smooth="yes"/>
      <point x="662" y="629"/>
      <point x="557" y="725"/>
      <point x="363" y="725" type="curve" smooth="yes"/>
      <point x="204" y="725"/>
      <point x="98" y="646"/>
      <point x="98" y="488" type="curve" smooth="yes"/>
    </contour>
  </outline>
</glyph>
<glyph name="u102AD" format="2">
  <advance width="707"/>
  <unicode hex="102AD"/>
  <outline>
    <contour>
      <point x="310" y="0" type="line"/>
      <point x="397" y="0" type="line"/>
      <point x="397" y="185" type="line"/>
      <point x="557" y="201"/>
      <point x="646" y="305"/>
      <point x="646" y="454" type="curve" smooth="yes"/>
      <point x="646" y="618"/>
      <point x="540" y="725"/>
      <point x="354" y="725" type="curve" smooth="yes"/>
      <point x="160" y="725"/>
      <point x="61" y="607"/>
      <point x="61" y="455" type="curve" smooth="yes"/>
      <point x="61" y="313"/>
      <point x="144" y="201"/>
      <point x="310" y="185" type="curve"/>
    </contour>
    <contour>
      <point x="353" y="262" type="curve" smooth="yes"/>
      <point x="212" y="262"/>
      <point x="156" y="342"/>
      <point x="156" y="454" type="curve" smooth="yes"/>
      <point x="156" y="568"/>
      <point x="213" y="646"/>
      <point x="354" y="646" type="curve" smooth="yes"/>
      <point x="494" y="646"/>
      <point x="551" y="568"/>
      <point x="551" y="454" type="curve" smooth="yes"/>
      <point x="551" y="341"/>
      <point x="493" y="262"/>
    </contour>
  </outline>
</glyph>
<glyph name="u102AE" format="2">
  <advance width="617"/>
  <unicode hex="102AE"/>
  <outline>
    <contour>
      <point x="430" y="0" type="line"/>
      <point x="520" y="0" type="line"/>
      <point x="520" y="714" type="line"/>
      <point x="430" y="714" type="line"/>
      <point x="430" y="590" type="line"/>
      <point x="333" y="590" type="line" smooth="yes"/>
      <point x="141" y="590"/>
      <point x="61" y="508"/>
      <point x="61" y="377" type="curve" smooth="yes"/>
      <point x="61" y="257"/>
      <point x="131" y="154"/>
      <point x="349" y="154" type="curve" smooth="yes"/>
      <point x="430" y="154" type="line"/>
    </contour>
    <contour>
      <point x="358" y="231" type="line" smooth="yes"/>
      <point x="218" y="231"/>
      <point x="156" y="272"/>
      <point x="156" y="377" type="curve" smooth="yes"/>
      <point x="156" y="469"/>
      <point x="211" y="513"/>
      <point x="341" y="513" type="curve" smooth="yes"/>
      <point x="430" y="513" type="line"/>
      <point x="430" y="231" type="line"/>
    </contour>
  </outline>
</glyph>
<glyph name="u102AF" format="2">
  <advance width="617"/>
  <unicode hex="102AF"/>
  <outline>
    <contour>
      <point x="98" y="0" type="line"/>
      <point x="188" y="0" type="line"/>
      <point x="188" y="191" type="line"/>
      <point x="359" y="66" type="line"/>
      <point x="405" y="129" type="line"/>
      <point x="203" y="277" type="line"/>
      <point x="270" y="277" type="line" smooth="yes"/>
      <point x="483" y="277"/>
      <point x="556" y="386"/>
      <point x="556" y="504" type="curve" smooth="yes"/>
      <point x="556" y="637"/>
      <point x="474" y="714"/>
      <point x="287" y="714" type="curve" smooth="yes"/>
      <point x="98" y="714" type="line"/>
    </contour>
    <contour>
      <point x="188" y="354" type="line"/>
      <point x="188" y="637" type="line"/>
      <point x="278" y="637" type="line" smooth="yes"/>
      <point x="404" y="637"/>
      <point x="461" y="591"/>
      <point x="461" y="500" type="curve" smooth="yes"/>
      <point x="461" y="395"/>
      <point x="396" y="354"/>
      <point x="259" y="354" type="curve" smooth="yes"/>
    </contour>
  </outline>
</glyph>
<glyph name="u102B1" format="2">
  <advance width="564"/>
  <unicode hex="102B1"/>
  <outline>
    <contour>
      <point x="238" y="0" type="line"/>
      <point x="328" y="0" type="line"/>
      <point x="328" y="637" type="line"/>
      <point x="550" y="637" type="line"/>
      <point x="550" y="714" type="line"/>
      <point x="15" y="714" type="line"/>
      <point x="15" y="637" type="line"/>
      <point x="238" y="637" type="line"/>
    </contour>
  </outline>
</glyph>
<glyph name="u102B2" format="2">
  <advance width="605"/>
  <unicode hex="102B2"/>
  <outline>
    <contour>
      <point x="257" y="0" type="line"/>
      <point x="347" y="0" type="line"/>
      <point x="347" y="277" type="line"/>
      <point x="585" y="714" type="line"/>
      <point x="489" y="714" type="line"/>
      <point x="303" y="363" type="line"/>
      <point x="118" y="714" type="line"/>
      <point x="20" y="714" type="line"/>
      <point x="257" y="273" type="line"/>
    </contour>
  </outline>
</glyph>
<glyph name="u102B3" format="2">
  <advance width="709"/>
  <unicode hex="102B3"/>
  <outline>
    <contour>
      <point x="310" y="0" type="line"/>
      <point x="399" y="0" type="line"/>
      <point x="399" y="98" type="line"/>
      <point x="558" y="114"/>
      <point x="648" y="217"/>
      <point x="648" y="366" type="curve" smooth="yes"/>
      <point x="648" y="516"/>
      <point x="557" y="619"/>
      <point x="399" y="635" type="curve"/>
      <point x="399" y="714" type="line"/>
      <point x="310" y="714" type="line"/>
      <point x="310" y="635" type="line"/>
      <point x="145" y="618"/>
      <point x="61" y="507"/>
      <point x="61" y="367" type="curve" smooth="yes"/>
      <point x="61" y="226"/>
      <point x="144" y="113"/>
      <point x="310" y="97" type="curve"/>
    </contour>
    <contour>
      <point x="310" y="174" type="line"/>
      <point x="200" y="189"/>
      <point x="154" y="266"/>
      <point x="154" y="366" type="curve" smooth="yes"/>
      <point x="154" y="467"/>
      <point x="201" y="542"/>
      <point x="310" y="558" type="curve"/>
    </contour>
    <contour>
      <point x="399" y="174" type="curve"/>
      <point x="399" y="558" type="line"/>
      <point x="507" y="542"/>
      <point x="555" y="467"/>
      <point x="555" y="366" type="curve" smooth="yes"/>
      <point x="555" y="266"/>
      <point x="507" y="191"/>
    </contour>
  </outline>
</glyph>
<glyph name="u102B6" format="2">
  <advance width="775"/>
  <unicode hex="102B6"/>
  <outline>
    <contour>
      <point x="34" y="0" type="line"/>
      <point x="322" y="0" type="line"/>
      <point x="322" y="72" type="line"/>
      <point x="198" y="161"/>
      <point x="155" y="268"/>
      <point x="155" y="401" type="curve" smooth="yes"/>
      <point x="155" y="553"/>
      <point x="227" y="646"/>
      <point x="387" y="646" type="curve" smooth="yes"/>
      <point x="548" y="646"/>
      <point x="621" y="553"/>
      <point x="621" y="401" type="curve" smooth="yes"/>
      <point x="621" y="269"/>
      <point x="577" y="160"/>
      <point x="453" y="72" type="curve"/>
      <point x="453" y="0" type="line"/>
      <point x="741" y="0" type="line"/>
      <point x="741" y="77" type="line"/>
      <point x="564" y="77" type="line"/>
      <point x="649" y="142"/>
      <point x="715" y="255"/>
      <point x="715" y="405" type="curve" smooth="yes"/>
      <point x="715" y="601"/>
      <point x="599" y="725"/>
      <point x="387" y="725" type="curve" smooth="yes"/>
      <point x="178" y="725"/>
      <point x="60" y="600"/>
      <point x="60" y="404" type="curve" smooth="yes"/>
      <point x="60" y="255"/>
      <point x="127" y="142"/>
      <point x="212" y="77" type="curve"/>
      <point x="34" y="77" type="line"/>
    </contour>
  </outline>
</glyph>
<glyph name="u102B7" format="2">
  <advance width="934"/>
  <unicode hex="102B7"/>
  <outline>
    <contour>
      <point x="15" y="0" type="curve"/>
      <point x="919" y="0" type="line"/>
      <point x="729" y="714" type="line"/>
      <point x="636" y="714" type="line"/>
      <point x="500" y="249" type="line" smooth="yes"/>
      <point x="483" y="192"/>
      <point x="466" y="126"/>
      <point x="463" y="108" type="curve"/>
      <point x="461" y="126"/>
      <point x="446" y="191"/>
      <point x="429" y="252" type="curve" smooth="yes"/>
      <point x="297" y="714" type="line"/>
      <point x="204" y="714" type="line"/>
      <point x="146" y="500"/>
      <point x="71" y="214"/>
    </contour>
    <contour>
      <point x="129" y="77" type="line"/>
      <point x="219" y="434" type="line" smooth="yes"/>
      <point x="235" y="496"/>
      <point x="247" y="553"/>
      <point x="253" y="604" type="curve"/>
      <point x="260" y="551"/>
      <point x="275" y="487"/>
      <point x="292" y="428" type="curve" smooth="yes"/>
      <point x="393" y="77" type="line"/>
    </contour>
    <contour>
      <point x="535" y="77" type="line"/>
      <point x="642" y="432" type="line" smooth="yes"/>
      <point x="661" y="494"/>
      <point x="673" y="558"/>
      <point x="681" y="604" type="curve"/>
      <point x="687" y="554"/>
      <point x="699" y="496"/>
      <point x="715" y="433" type="curve" smooth="yes"/>
      <point x="805" y="77" type="line"/>
    </contour>
  </outline>
</glyph>
<glyph name="u102B8" format="2">
  <advance width="781"/>
  <unicode hex="102B8"/>
  <outline>
    <contour>
      <point x="391" y="-10" type="curve" smooth="yes"/>
      <point x="606" y="-10"/>
      <point x="720" y="137"/>
      <point x="720" y="358" type="curve" smooth="yes"/>
      <point x="720" y="580"/>
      <point x="606" y="725"/>
      <point x="392" y="725" type="curve" smooth="yes"/>
      <point x="168" y="725"/>
      <point x="61" y="578"/>
      <point x="61" y="359" type="curve" smooth="yes"/>
      <point x="61" y="138"/>
      <point x="168" y="-10"/>
    </contour>
    <contour>
      <point x="345" y="64" type="line"/>
      <point x="215" y="85"/>
      <point x="152" y="196"/>
      <point x="152" y="358" type="curve" smooth="yes"/>
      <point x="152" y="520"/>
      <point x="215" y="628"/>
      <point x="345" y="649" type="curve"/>
    </contour>
    <contour>
      <point x="435" y="64" type="curve"/>
      <point x="435" y="650" type="line"/>
      <point x="567" y="631"/>
      <point x="629" y="521"/>
      <point x="629" y="358" type="curve" smooth="yes"/>
      <point x="629" y="195"/>
      <point x="567" y="84"/>
    </contour>
  </outline>
</glyph>
<glyph name="u102B9" format="2">
  <advance width="599"/>
  <unicode hex="102B9"/>
  <outline>
    <contour>
      <point x="434" y="0" type="curve" smooth="yes"/>
      <point x="501" y="0" type="line"/>
      <point x="501" y="714" type="line"/>
      <point x="413" y="714" type="line" smooth="yes"/>
      <point x="198" y="714"/>
      <point x="61" y="593"/>
      <point x="61" y="364" type="curve" smooth="yes"/>
      <point x="61" y="123"/>
      <point x="199" y="0"/>
    </contour>
    <contour>
      <point x="411" y="78" type="line"/>
      <point x="250" y="89"/>
      <point x="165" y="175"/>
      <point x="156" y="334" type="curve"/>
      <point x="411" y="334" type="line"/>
    </contour>
    <contour>
      <point x="158" y="411" type="line"/>
      <point x="174" y="561"/>
      <point x="263" y="632"/>
      <point x="411" y="637" type="curve"/>
      <point x="411" y="411" type="line"/>
    </contour>
  </outline>
</glyph>
<glyph name="u102BA" format="2">
  <advance width="592"/>
  <unicode hex="102BA"/>
  <outline>
    <contour>
      <point x="68" y="260" type="line"/>
      <point x="523" y="260" type="line"/>
      <point x="523" y="714" type="line"/>
      <point x="68" y="714" type="line"/>
    </contour>
    <contour>
      <point x="158" y="337" type="line"/>
      <point x="158" y="637" type="line"/>
      <point x="434" y="637" type="line"/>
      <point x="434" y="337" type="line"/>
    </contour>
  </outline>
</glyph>
<glyph name="u102BB" format="2">
  <advance width="592"/>
  <unicode hex="102BB"/>
  <outline>
    <contour>
      <point x="251" y="0" type="line"/>
      <point x="341" y="0" type="line"/>
      <point x="341" y="260" type="line"/>
      <point x="523" y="260" type="line"/>
      <point x="523" y="714" type="line"/>
      <point x="68" y="714" type="line"/>
      <point x="68" y="260" type="line"/>
      <point x="251" y="260" type="line"/>
    </contour>
    <contour>
      <point x="158" y="337" type="line"/>
      <point x="158" y="637" type="line"/>
      <point x="434" y="637" type="line"/>
      <point x="434" y="337" type="line"/>
    </contour>
  </outline>
</glyph>
<glyph name="u102BC" format="2">
  <advance width="600"/>
  <unicode hex="102BC"/>
  <outline>
    <contour>
      <point x="254" y="0" type="line"/>
      <point x="344" y="0" type="line"/>
      <point x="570" y="660" type="line"/>
      <point x="570" y="714" type="line"/>
      <point x="29" y="714" type="line"/>
      <point x="29" y="659" type="line"/>
    </contour>
    <contour>
      <point x="298" y="98" type="curve"/>
      <point x="286" y="146"/>
      <point x="271" y="203"/>
      <point x="252" y="259" type="curve" smooth="yes"/>
      <point x="125" y="637" type="line"/>
      <point x="471" y="637" type="line"/>
      <point x="346" y="263" type="line" smooth="yes"/>
      <point x="326" y="203"/>
      <point x="309" y="146"/>
    </contour>
  </outline>
</glyph>
<glyph name="u102BD" format="2">
  <advance width="589"/>
  <unicode hex="102BD"/>
  <outline>
    <contour>
      <point x="250" y="0" type="line"/>
      <point x="339" y="0" type="line"/>
      <point x="339" y="313" type="line"/>
      <point x="560" y="660" type="line"/>
      <point x="560" y="714" type="line"/>
      <point x="29" y="714" type="line"/>
      <point x="29" y="659" type="line"/>
      <point x="250" y="313" type="line"/>
    </contour>
    <contour>
      <point x="294" y="391" type="line"/>
      <point x="141" y="637" type="line"/>
      <point x="448" y="637" type="line"/>
    </contour>
  </outline>
</glyph>
<glyph name="u102BE" format="2">
  <advance width="665"/>
  <unicode hex="102BE"/>
  <outline>
    <contour>
      <point x="67" y="365" type="line"/>
      <point x="332" y="636" type="line"/>
      <point x="598" y="365" type="line"/>
      <point x="655" y="420" type="line"/>
      <point x="368" y="714" type="line"/>
      <point x="297" y="714" type="line"/>
      <point x="10" y="420" type="line"/>
    </contour>
    <contour>
      <point x="67" y="-10" type="line"/>
      <point x="332" y="262" type="line"/>
      <point x="598" y="-10" type="line"/>
      <point x="655" y="46" type="line"/>
      <point x="368" y="339" type="line"/>
      <point x="297" y="339" type="line"/>
      <point x="10" y="46" type="line"/>
    </contour>
  </outline>
</glyph>
<glyph name="u102BF" format="2">
  <advance width="918"/>
  <unicode hex="102BF"/>
  <outline>
    <contour>
      <point x="98" y="0" type="line"/>
      <point x="188" y="0" type="line"/>
      <point x="188" y="637" type="line"/>
      <point x="414" y="637" type="line"/>
      <point x="414" y="0" type="line"/>
      <point x="504" y="0" type="line"/>
      <point x="504" y="637" type="line"/>
      <point x="730" y="637" type="line"/>
      <point x="730" y="0" type="line"/>
      <point x="820" y="0" type="line"/>
      <point x="820" y="714" type="line"/>
      <point x="98" y="714" type="line"/>
    </contour>
  </outline>
</glyph>
<glyph name="u102C0" format="2">
  <advance width="617"/>
  <unicode hex="102C0"/>
  <outline>
    <contour>
      <point x="20" y="0" type="line"/>
      <point x="598" y="0" type="line"/>
      <point x="360" y="374" type="line"/>
      <point x="581" y="714" type="line"/>
      <point x="35" y="714" type="line"/>
      <point x="257" y="372" type="line"/>
    </contour>
    <contour>
      <point x="164" y="77" type="line"/>
      <point x="307" y="310" type="line"/>
      <point x="447" y="77" type="line"/>
    </contour>
    <contour>
      <point x="310" y="434" type="line"/>
      <point x="185" y="637" type="line"/>
      <point x="435" y="637" type="line"/>
    </contour>
  </outline>
</glyph>
<glyph name="u102C1" format="2">
  <advance width="617"/>
  <unicode hex="102C1"/>
  <outline>
    <contour>
      <point x="20" y="0" type="line"/>
      <point x="115" y="0" type="line"/>
      <point x="307" y="310" type="line"/>
      <point x="496" y="0" type="line"/>
      <point x="598" y="0" type="line"/>
      <point x="360" y="374" type="line"/>
      <point x="581" y="714" type="line"/>
      <point x="35" y="714" type="line"/>
      <point x="257" y="372" type="line"/>
    </contour>
    <contour>
      <point x="310" y="434" type="line"/>
      <point x="185" y="637" type="line"/>
      <point x="435" y="637" type="line"/>
    </contour>
  </outline>
</glyph>
<glyph name="u102C2" format="2">
  <advance width="754"/>
  <unicode hex="102C2"/>
  <outline>
    <contour>
      <point x="699" y="-10" type="curve"/>
      <point x="715" y="67" type="line"/>
      <point x="583" y="106"/>
      <point x="510" y="188"/>
      <point x="510" y="355" type="curve" smooth="yes"/>
      <point x="510" y="520"/>
      <point x="583" y="609"/>
      <point x="715" y="646" type="curve"/>
      <point x="699" y="724" type="line"/>
      <point x="514" y="684"/>
      <point x="415" y="555"/>
      <point x="415" y="355" type="curve" smooth="yes"/>
      <point x="415" y="151"/>
      <point x="523" y="28"/>
    </contour>
    <contour>
      <point x="55" y="-10" type="line"/>
      <point x="231" y="28"/>
      <point x="339" y="151"/>
      <point x="339" y="355" type="curve" smooth="yes"/>
      <point x="339" y="555"/>
      <point x="240" y="684"/>
      <point x="55" y="724" type="curve"/>
      <point x="39" y="646" type="line"/>
      <point x="171" y="609"/>
      <point x="244" y="520"/>
      <point x="244" y="355" type="curve" smooth="yes"/>
      <point x="244" y="188"/>
      <point x="171" y="106"/>
      <point x="39" y="67" type="curve"/>
    </contour>
  </outline>
</glyph>
<glyph name="u102C3" format="2">
  <advance width="646"/>
  <unicode hex="102C3"/>
  <outline>
    <contour>
      <point x="316" y="0" type="line"/>
      <point x="339" y="0" type="line" smooth="yes"/>
      <point x="499" y="0"/>
      <point x="585" y="108"/>
      <point x="585" y="233" type="curve" smooth="yes"/>
      <point x="585" y="357"/>
      <point x="499" y="465"/>
      <point x="339" y="465" type="curve" smooth="yes"/>
      <point x="316" y="465" type="line"/>
      <point x="316" y="388" type="line"/>
      <point x="336" y="388" type="line" smooth="yes"/>
      <point x="450" y="388"/>
      <point x="491" y="305"/>
      <point x="491" y="233" type="curve" smooth="yes"/>
      <point x="491" y="160"/>
      <point x="450" y="77"/>
      <point x="336" y="77" type="curve" smooth="yes"/>
      <point x="316" y="77" type="line"/>
    </contour>
    <contour>
      <point x="308" y="249" type="curve" smooth="yes"/>
      <point x="330" y="249" type="line"/>
      <point x="330" y="326" type="line"/>
      <point x="311" y="326" type="line" smooth="yes"/>
      <point x="197" y="326"/>
      <point x="156" y="409"/>
      <point x="156" y="480" type="curve" smooth="yes"/>
      <point x="156" y="554"/>
      <point x="197" y="637"/>
      <point x="311" y="637" type="curve" smooth="yes"/>
      <point x="330" y="637" type="line"/>
      <point x="330" y="714" type="line"/>
      <point x="308" y="714" type="line" smooth="yes"/>
      <point x="148" y="714"/>
      <point x="61" y="605"/>
      <point x="61" y="481" type="curve" smooth="yes"/>
      <point x="61" y="357"/>
      <point x="148" y="249"/>
    </contour>
  </outline>
</glyph>
<glyph name="u102C4" format="2">
  <advance width="797"/>
  <unicode hex="102C4"/>
  <outline>
    <contour>
      <point x="109" y="0" type="line"/>
      <point x="204" y="0" type="line"/>
      <point x="396" y="310" type="line"/>
      <point x="585" y="0" type="line"/>
      <point x="687" y="0" type="line"/>
      <point x="449" y="374" type="line"/>
      <point x="604" y="611" type="line"/>
      <point x="718" y="425" type="line"/>
      <point x="788" y="464" type="line"/>
      <point x="629" y="714" type="line"/>
      <point x="575" y="714" type="line"/>
      <point x="399" y="434" type="line"/>
      <point x="224" y="714" type="line"/>
      <point x="168" y="714" type="line"/>
      <point x="10" y="464" type="line"/>
      <point x="79" y="425" type="line"/>
      <point x="192" y="608" type="line"/>
      <point x="346" y="372" type="line"/>
    </contour>
  </outline>
</glyph>
<glyph name="u102C5" format="2">
  <advance width="904"/>
  <unicode hex="102C5"/>
  <outline>
    <contour>
      <point x="98" y="0" type="line"/>
      <point x="188" y="0" type="line"/>
      <point x="188" y="334" type="line"/>
      <point x="407" y="334" type="line"/>
      <point x="407" y="0" type="line"/>
      <point x="497" y="0" type="line"/>
      <point x="497" y="334" type="line"/>
      <point x="717" y="334" type="line"/>
      <point x="717" y="0" type="line"/>
      <point x="807" y="0" type="line"/>
      <point x="807" y="714" type="line"/>
      <point x="717" y="714" type="line"/>
      <point x="717" y="411" type="line"/>
      <point x="497" y="411" type="line"/>
      <point x="497" y="714" type="line"/>
      <point x="407" y="714" type="line"/>
      <point x="407" y="411" type="line"/>
      <point x="188" y="411" type="line"/>
      <point x="188" y="714" type="line"/>
      <point x="98" y="714" type="line"/>
    </contour>
  </outline>
</glyph>
<glyph name="u102C6" format="2">
  <advance width="794"/>
  <unicode hex="102C6"/>
  <outline>
    <contour>
      <point x="509" y="-10" type="curve" smooth="yes"/>
      <point x="616" y="-10"/>
      <point x="711" y="48"/>
      <point x="746" y="143" type="curve"/>
      <point x="672" y="183" type="line"/>
      <point x="643" y="117"/>
      <point x="586" y="69"/>
      <point x="509" y="69" type="curve" smooth="yes"/>
      <point x="427" y="69"/>
      <point x="359" y="122"/>
      <point x="359" y="236" type="curve" smooth="yes"/>
      <point x="359" y="313"/>
      <point x="402" y="377"/>
      <point x="460" y="400" type="curve"/>
      <point x="472" y="451" type="line"/>
      <point x="254" y="724" type="line"/>
      <point x="190" y="675" type="line"/>
      <point x="372" y="450" type="line"/>
      <point x="29" y="450" type="line"/>
      <point x="29" y="374" type="line"/>
      <point x="314" y="374" type="line"/>
      <point x="284" y="330"/>
      <point x="265" y="277"/>
      <point x="265" y="221" type="curve" smooth="yes"/>
      <point x="265" y="70"/>
      <point x="374" y="-10"/>
    </contour>
  </outline>
</glyph>
<glyph name="u102C7" format="2">
  <advance width="684"/>
  <unicode hex="102C7"/>
  <outline>
    <contour>
      <point x="297" y="0" type="line"/>
      <point x="387" y="0" type="line"/>
      <point x="387" y="593" type="line"/>
      <point x="607" y="365" type="line"/>
      <point x="665" y="421" type="line"/>
      <point x="377" y="714" type="line"/>
      <point x="307" y="714" type="line"/>
      <point x="20" y="421" type="line"/>
      <point x="77" y="365" type="line"/>
      <point x="297" y="594" type="line"/>
    </contour>
  </outline>
</glyph>
<glyph name="u102C8" format="2">
  <advance width="738"/>
  <unicode hex="102C8"/>
  <outline>
    <contour>
      <point x="551" y="313" type="line"/>
      <point x="641" y="313" type="line"/>
      <point x="641" y="714" type="line"/>
      <point x="551" y="714" type="line"/>
    </contour>
    <contour>
      <point x="324" y="0" type="line"/>
      <point x="414" y="0" type="line"/>
      <point x="414" y="401" type="line"/>
      <point x="324" y="401" type="line"/>
    </contour>
    <contour>
      <point x="98" y="313" type="line"/>
      <point x="188" y="313" type="line"/>
      <point x="188" y="714" type="line"/>
      <point x="98" y="714" type="line"/>
    </contour>
  </outline>
</glyph>
<glyph name="u102C9" format="2">
  <advance width="642"/>
  <unicode hex="102C9"/>
  <outline>
    <contour>
      <point x="336" y="-10" type="curve" smooth="yes"/>
      <point x="507" y="-10"/>
      <point x="581" y="105"/>
      <point x="581" y="220" type="curve" smooth="yes"/>
      <point x="581" y="350"/>
      <point x="482" y="453"/>
      <point x="341" y="453" type="curve" smooth="yes"/>
      <point x="308" y="453"/>
      <point x="273" y="447"/>
      <point x="236" y="435" type="curve"/>
      <point x="261" y="361" type="line"/>
      <point x="280" y="369"/>
      <point x="303" y="374"/>
      <point x="326" y="374" type="curve" smooth="yes"/>
      <point x="402" y="374"/>
      <point x="486" y="337"/>
      <point x="486" y="220" type="curve" smooth="yes"/>
      <point x="486" y="129"/>
      <point x="442" y="69"/>
      <point x="335" y="69" type="curve" smooth="yes"/>
      <point x="249" y="69"/>
      <point x="156" y="128"/>
      <point x="156" y="324" type="curve" smooth="yes"/>
      <point x="156" y="544"/>
      <point x="279" y="637"/>
      <point x="431" y="637" type="curve" smooth="yes"/>
      <point x="497" y="637" type="line"/>
      <point x="497" y="714" type="line"/>
      <point x="421" y="714" type="line" smooth="yes"/>
      <point x="221" y="714"/>
      <point x="61" y="566"/>
      <point x="61" y="324" type="curve" smooth="yes"/>
      <point x="61" y="93"/>
      <point x="166" y="-10"/>
    </contour>
  </outline>
</glyph>
<glyph name="u102CA" format="2">
  <advance width="754"/>
  <unicode hex="102CA"/>
  <outline>
    <contour>
      <point x="39" y="0" type="line"/>
      <point x="61" y="0" type="line" smooth="yes"/>
      <point x="458" y="0"/>
      <point x="696" y="272"/>
      <point x="696" y="549" type="curve" smooth="yes"/>
      <point x="696" y="607"/>
      <point x="686" y="666"/>
      <point x="667" y="724" type="curve"/>
      <point x="575" y="709" type="line"/>
      <point x="591" y="657"/>
      <point x="602" y="602"/>
      <point x="602" y="546" type="curve" smooth="yes"/>
      <point x="602" y="389"/>
      <point x="525" y="228"/>
      <point x="271" y="114" type="curve"/>
      <point x="325" y="173"/>
      <point x="363" y="273"/>
      <point x="363" y="385" type="curve" smooth="yes"/>
      <point x="363" y="532"/>
      <point x="314" y="646"/>
      <point x="204" y="724" type="curve"/>
      <point x="154" y="653" type="line"/>
      <point x="228" y="595"/>
      <point x="269" y="500"/>
      <point x="269" y="380" type="curve" smooth="yes"/>
      <point x="269" y="212"/>
      <point x="172" y="77"/>
      <point x="39" y="77" type="curve"/>
    </contour>
  </outline>
</glyph>
<glyph name="u102CB" format="2">
  <advance width="754"/>
  <unicode hex="102CB"/>
  <outline>
    <contour>
      <point x="204" y="-10" type="line"/>
      <point x="314" y="67"/>
      <point x="363" y="182"/>
      <point x="363" y="329" type="curve" smooth="yes"/>
      <point x="363" y="441"/>
      <point x="325" y="541"/>
      <point x="271" y="600" type="curve"/>
      <point x="525" y="486"/>
      <point x="602" y="325"/>
      <point x="602" y="167" type="curve" smooth="yes"/>
      <point x="602" y="112"/>
      <point x="591" y="57"/>
      <point x="575" y="5" type="curve"/>
      <point x="667" y="-10" type="line"/>
      <point x="686" y="48"/>
      <point x="696" y="107"/>
      <point x="696" y="165" type="curve" smooth="yes"/>
      <point x="696" y="442"/>
      <point x="458" y="714"/>
      <point x="61" y="714" type="curve" smooth="yes"/>
      <point x="39" y="714" type="line"/>
      <point x="39" y="637" type="line"/>
      <point x="172" y="637"/>
      <point x="269" y="501"/>
      <point x="269" y="334" type="curve" smooth="yes"/>
      <point x="269" y="214"/>
      <point x="228" y="119"/>
      <point x="154" y="61" type="curve"/>
    </contour>
  </outline>
</glyph>
<glyph name="u102CC" format="2">
  <advance width="607"/>
  <unicode hex="102CC"/>
  <outline>
    <contour>
      <point x="421" y="0" type="curve"/>
      <point x="516" y="0" type="line"/>
      <point x="498" y="89"/>
      <point x="485" y="180"/>
      <point x="480" y="271" type="curve"/>
      <point x="504" y="276"/>
      <point x="527" y="283"/>
      <point x="548" y="291" type="curve"/>
      <point x="548" y="368" type="line"/>
      <point x="525" y="360"/>
      <point x="502" y="354"/>
      <point x="478" y="348" type="curve"/>
      <point x="478" y="367" type="line" smooth="yes"/>
      <point x="478" y="481"/>
      <point x="489" y="597"/>
      <point x="516" y="714" type="curve"/>
      <point x="421" y="714" type="line"/>
      <point x="395" y="599"/>
      <point x="383" y="484"/>
      <point x="383" y="367" type="curve" smooth="yes"/>
      <point x="383" y="332" type="line"/>
      <point x="356" y="329"/>
      <point x="329" y="327"/>
      <point x="303" y="327" type="curve" smooth="yes"/>
      <point x="212" y="327"/>
      <point x="168" y="365"/>
      <point x="168" y="442" type="curve" smooth="yes"/>
      <point x="168" y="714" type="line"/>
      <point x="78" y="714" type="line"/>
      <point x="78" y="429" type="line" smooth="yes"/>
      <point x="78" y="312"/>
      <point x="160" y="248"/>
      <point x="294" y="248" type="curve" smooth="yes"/>
      <point x="324" y="248"/>
      <point x="355" y="250"/>
      <point x="387" y="254" type="curve"/>
      <point x="392" y="170"/>
      <point x="403" y="85"/>
    </contour>
  </outline>
</glyph>
<glyph name="u102CD" format="2">
  <advance width="697"/>
  <unicode hex="102CD"/>
  <outline>
    <contour>
      <point x="98" y="0" type="line"/>
      <point x="188" y="0" type="line"/>
      <point x="188" y="293" type="line"/>
      <point x="265" y="266"/>
      <point x="327" y="248"/>
      <point x="409" y="248" type="curve" smooth="yes"/>
      <point x="543" y="248"/>
      <point x="619" y="312"/>
      <point x="619" y="429" type="curve" smooth="yes"/>
      <point x="619" y="714" type="line"/>
      <point x="529" y="714" type="line"/>
      <point x="529" y="442" type="line" smooth="yes"/>
      <point x="529" y="365"/>
      <point x="491" y="327"/>
      <point x="400" y="327" type="curve" smooth="yes"/>
      <point x="321" y="327"/>
      <point x="267" y="342"/>
      <point x="188" y="368" type="curve"/>
      <point x="188" y="714" type="line"/>
      <point x="98" y="714" type="line"/>
    </contour>
  </outline>
</glyph>
<glyph name="u102CE" format="2">
  <advance width="658"/>
  <unicode hex="102CE"/>
  <outline>
    <contour>
      <point x="10" y="0" type="line"/>
      <point x="101" y="0" type="line"/>
      <point x="297" y="517" type="line" smooth="yes"/>
      <point x="306" y="540"/>
      <point x="318" y="583"/>
      <point x="328" y="624" type="curve"/>
      <point x="335" y="599"/>
      <point x="356" y="533"/>
      <point x="362" y="517" type="curve" smooth="yes"/>
      <point x="555" y="0" type="line"/>
      <point x="648" y="0" type="line"/>
      <point x="370" y="717" type="line"/>
      <point x="289" y="717" type="line"/>
    </contour>
    <contour>
      <point x="188" y="90" type="line"/>
      <point x="467" y="90" type="line"/>
      <point x="467" y="166" type="line"/>
      <point x="188" y="166" type="line"/>
    </contour>
  </outline>
</glyph>
<glyph name="u102CF" format="2">
  <advance width="741"/>
  <unicode hex="102CF"/>
  <outline>
    <contour>
      <point x="98" y="0" type="line"/>
      <point x="188" y="0" type="line"/>
      <point x="188" y="334" type="line"/>
      <point x="554" y="334" type="line"/>
      <point x="554" y="0" type="line"/>
      <point x="644" y="0" type="line"/>
      <point x="644" y="714" type="line"/>
      <point x="554" y="714" type="line"/>
      <point x="554" y="411" type="line"/>
      <point x="188" y="411" type="line"/>
      <point x="188" y="714" type="line"/>
      <point x="98" y="714" type="line"/>
    </contour>
  </outline>
</glyph>
<glyph name="u102D0" format="2">
  <advance width="743"/>
  <unicode hex="102D0"/>
  <outline>
    <contour>
      <point x="328" y="0" type="line"/>
      <point x="417" y="0" type="line"/>
      <point x="417" y="333" type="line"/>
      <point x="646" y="333" type="line"/>
      <point x="646" y="714" type="line"/>
      <point x="556" y="714" type="line"/>
      <point x="556" y="410" type="line"/>
      <point x="417" y="410" type="line"/>
      <point x="417" y="714" type="line"/>
      <point x="328" y="714" type="line"/>
      <point x="328" y="410" type="line"/>
      <point x="188" y="410" type="line"/>
      <point x="188" y="714" type="line"/>
      <point x="98" y="714" type="line"/>
      <point x="98" y="333" type="line"/>
      <point x="328" y="333" type="line"/>
    </contour>
  </outline>
</glyph>
